<svg width="24" height="24" viewBox="0 0 24 24" fill="none" xmlns="http://www.w3.org/2000/svg">
<path d="M0 12C0 18.6274 5.37258 24 12 24C18.6274 24 24 18.6274 24 12C24 5.37258 18.6274 0 12 0C5.37258 0 0 5.37258 0 12Z" fill="black" fill-opacity="0.2"/>
<path d="M7.29533 14.9631H8.06037C9.06478 16.4268 10.7067 17.2994 12.4597 17.3013C12.8656 17.3013 13.2548 17.1371 13.5418 16.8448C13.8288 16.5524 13.99 16.1559 13.99 15.7426V7.55873C13.99 7.14539 13.8288 6.74893 13.5418 6.45655C13.2548 6.16416 12.8656 6 12.4597 6C10.7067 6.0019 9.06474 6.87451 8.06037 8.33821H7.29533C6.68652 8.33821 6.10278 8.5845 5.67234 9.02312C5.24179 9.46161 5 10.0562 5 10.6765V12.625C5 13.2452 5.24176 13.8398 5.67234 14.2783C6.10278 14.7169 6.68648 14.9631 7.29533 14.9631Z" fill="white"/>
<path d="M16.6355 13.3712C17.0454 12.8973 17.2623 12.2818 17.2418 11.6506C17.2623 11.0194 17.0454 10.404 16.6355 9.93005C16.442 9.7331 16.1602 9.65617 15.8961 9.72821C15.6319 9.80038 15.4255 10.0105 15.3548 10.2796C15.2839 10.5488 15.3594 10.836 15.5529 11.0329C15.7637 11.4167 15.7637 11.8846 15.5529 12.2684C15.3594 12.4654 15.2839 12.7526 15.3548 13.0217C15.4255 13.2908 15.6319 13.5009 15.8961 13.5731C16.1602 13.6451 16.442 13.5682 16.6355 13.3713V13.3712Z" fill="white"/>
</svg>
